<svg width="34" height="34" viewBox="0 0 34 34" fill="none" xmlns="http://www.w3.org/2000/svg">
<circle cx="17" cy="17" r="16.5" stroke="#FFB800"/>
<path d="M7.002 17.002C7.00316 21.9214 10.5804 26.1101 15.439 26.881V19.892H12.902V17.002H15.442V14.802C15.3285 13.7596 15.6845 12.7206 16.4136 11.967C17.1428 11.2133 18.1694 10.8231 19.215 10.902C19.9655 10.9142 20.7142 10.981 21.455 11.102V13.561H20.191C19.7558 13.504 19.3184 13.6478 19.0018 13.9517C18.6852 14.2557 18.5238 14.6869 18.563 15.124V17.002H21.334L20.891 19.893H18.563V26.881C23.8175 26.0506 27.5021 21.2518 26.9475 15.9611C26.3929 10.6704 21.7933 6.73997 16.4808 7.01722C11.1684 7.29447 7.00284 11.6824 7.002 17.002Z" fill="#FFB800"/>
</svg>
