<svg width="34" height="34" viewBox="0 0 34 34" fill="none" xmlns="http://www.w3.org/2000/svg">
<path d="M17.002 26.0409C14.542 26.0409 14.252 26.0279 13.292 25.9859C12.5434 25.9613 11.8044 25.8091 11.107 25.5359C9.90031 25.0663 8.94614 24.1117 8.477 22.9049C8.21431 22.2049 8.07262 21.4654 8.058 20.7179C8.002 19.7599 8.002 19.4459 8.002 17.0049C8.002 14.5379 8.015 14.2499 8.058 13.2949C8.07294 12.5484 8.21462 11.8099 8.477 11.1109C8.94563 9.90241 9.90135 8.94706 11.11 8.47888C11.8086 8.21509 12.5473 8.07303 13.294 8.05888C14.249 8.00488 14.563 8.00488 17.002 8.00488C19.482 8.00488 19.767 8.01788 20.712 8.05888C21.4606 8.07315 22.2012 8.21519 22.902 8.47888C24.1103 8.94759 25.0658 9.90276 25.535 11.1109C25.8021 11.8201 25.9446 12.5701 25.956 13.3279C26.012 14.2859 26.012 14.5989 26.012 17.0389C26.012 19.4789 25.998 19.7989 25.956 20.7459C25.9411 21.4941 25.7991 22.2343 25.536 22.9349C25.0657 24.1426 24.1101 25.0975 22.902 25.5669C22.2022 25.8291 21.4631 25.9707 20.716 25.9859C19.761 26.0409 19.448 26.0409 17.002 26.0409ZM16.968 9.58788C14.522 9.58788 14.268 9.59988 13.313 9.64288C12.743 9.65043 12.1785 9.75562 11.644 9.95388C10.8548 10.2559 10.2302 10.8779 9.925 11.6659C9.72521 12.2062 9.62001 12.7769 9.614 13.3529C9.561 14.3219 9.561 14.5759 9.561 17.0049C9.561 19.4049 9.57 19.6959 9.614 20.6589C9.62295 21.2291 9.7281 21.7937 9.925 22.3289C10.2307 23.1164 10.8551 23.7379 11.644 24.0399C12.1781 24.2395 12.7429 24.3447 13.313 24.3509C14.281 24.4069 14.536 24.4069 16.968 24.4069C19.421 24.4069 19.675 24.3949 20.622 24.3509C21.1924 24.3439 21.7573 24.2387 22.292 24.0399C23.0765 23.7353 23.6969 23.1152 24.002 22.3309C24.2014 21.7901 24.3066 21.2192 24.313 20.6429H24.324C24.367 19.6869 24.367 19.4319 24.367 16.9889C24.367 14.5459 24.356 14.2889 24.313 13.3339C24.304 12.7643 24.1989 12.2004 24.002 11.6659C23.6976 10.8805 23.0771 10.2592 22.292 9.95388C21.7575 9.75462 21.1924 9.6494 20.622 9.64288C19.655 9.58788 19.402 9.58788 16.968 9.58788ZM17.002 21.6239C15.132 21.6251 13.4454 20.4996 12.7289 18.7723C12.0123 17.0451 12.4069 15.0562 13.7286 13.7333C15.0504 12.4105 17.0389 12.0142 18.7668 12.7292C20.4947 13.4443 21.6216 15.1299 21.622 16.9999C21.6193 19.5509 19.5531 21.6189 17.002 21.6239ZM17.002 13.9979C15.3451 13.9979 14.002 15.341 14.002 16.9979C14.002 18.6547 15.3451 19.9979 17.002 19.9979C18.6589 19.9979 20.002 18.6547 20.002 16.9979C19.9982 15.3426 18.6573 14.0017 17.002 13.9979ZM21.802 13.2849C21.2074 13.2827 20.7269 12.7995 20.728 12.2049C20.7291 11.6103 21.2114 11.1289 21.806 11.1289C22.4006 11.1289 22.8829 11.6103 22.884 12.2049C22.8843 12.4917 22.7703 12.7669 22.5673 12.9696C22.3642 13.1722 22.0889 13.2857 21.802 13.2849Z" fill="#FFB800"/>
<circle cx="17" cy="17" r="16.5" stroke="#FFB800"/>
</svg>
