<svg width="34" height="34" viewBox="0 0 34 34" fill="none" xmlns="http://www.w3.org/2000/svg">
<path d="M18 26H14V14H18V16C18.8526 14.9153 20.1456 14.2686 21.525 14.237C24.0056 14.2508 26.0072 16.2694 26 18.75V26H22V19.25C21.84 18.1326 20.8818 17.3036 19.753 17.306C19.2593 17.3216 18.7932 17.5378 18.4624 17.9046C18.1316 18.2715 17.9646 18.7573 18 19.25V26ZM12 26H8V14H12V26ZM10 12C8.89543 12 8 11.1046 8 10C8 8.89543 8.89543 8 10 8C11.1046 8 12 8.89543 12 10C12 10.5304 11.7893 11.0391 11.4142 11.4142C11.0391 11.7893 10.5304 12 10 12Z" fill="#FFB800"/>
<circle cx="17" cy="17" r="16.5" stroke="#FFB800"/>
</svg>
