<svg width="67" height="17" viewBox="0 0 67 17" fill="none" xmlns="http://www.w3.org/2000/svg">
<path d="M3.598 13.558H8.658V16H0.518V0.644H3.598V13.558ZM19.9437 16.154C18.5063 16.154 17.1863 15.8167 15.9837 15.142C14.781 14.4673 13.8277 13.536 13.1237 12.348C12.4197 11.1453 12.0677 9.78867 12.0677 8.278C12.0677 6.782 12.4197 5.44 13.1237 4.252C13.8277 3.04933 14.781 2.11067 15.9837 1.436C17.1863 0.761333 18.5063 0.424 19.9437 0.424C21.3957 0.424 22.7157 0.761333 23.9037 1.436C25.1063 2.11067 26.0523 3.04933 26.7417 4.252C27.4457 5.44 27.7977 6.782 27.7977 8.278C27.7977 9.78867 27.4457 11.1453 26.7417 12.348C26.0523 13.536 25.1063 14.4673 23.9037 15.142C22.701 15.8167 21.381 16.154 19.9437 16.154ZM19.9437 13.404C20.8677 13.404 21.6817 13.1987 22.3857 12.788C23.0897 12.3627 23.6397 11.7613 24.0357 10.984C24.4317 10.2067 24.6297 9.30467 24.6297 8.278C24.6297 7.25133 24.4317 6.35667 24.0357 5.594C23.6397 4.81667 23.0897 4.22267 22.3857 3.812C21.6817 3.40133 20.8677 3.196 19.9437 3.196C19.0197 3.196 18.1983 3.40133 17.4797 3.812C16.7757 4.22267 16.2257 4.81667 15.8297 5.594C15.4337 6.35667 15.2357 7.25133 15.2357 8.278C15.2357 9.30467 15.4337 10.2067 15.8297 10.984C16.2257 11.7613 16.7757 12.3627 17.4797 12.788C18.1983 13.1987 19.0197 13.404 19.9437 13.404ZM42.9811 5.264C42.6291 4.61867 42.1451 4.12733 41.5291 3.79C40.9131 3.45267 40.1944 3.284 39.3731 3.284C38.4638 3.284 37.6571 3.48933 36.9531 3.9C36.2491 4.31067 35.6991 4.89733 35.3031 5.66C34.9071 6.42267 34.7091 7.30267 34.7091 8.3C34.7091 9.32667 34.9071 10.2213 35.3031 10.984C35.7138 11.7467 36.2784 12.3333 36.9971 12.744C37.7158 13.1547 38.5518 13.36 39.5051 13.36C40.6784 13.36 41.6391 13.052 42.3871 12.436C43.1351 11.8053 43.6264 10.9327 43.8611 9.818H38.5811V7.464H46.8971V10.148C46.6918 11.2187 46.2518 12.2087 45.5771 13.118C44.9024 14.0273 44.0298 14.7607 42.9591 15.318C41.9031 15.8607 40.7151 16.132 39.3951 16.132C37.9138 16.132 36.5718 15.802 35.3691 15.142C34.1811 14.4673 33.2424 13.536 32.5531 12.348C31.8784 11.16 31.5411 9.81067 31.5411 8.3C31.5411 6.78933 31.8784 5.44 32.5531 4.252C33.2424 3.04933 34.1811 2.118 35.3691 1.458C36.5718 0.783333 37.9064 0.446 39.3731 0.446C41.1038 0.446 42.6071 0.871333 43.8831 1.722C45.1591 2.558 46.0391 3.73867 46.5231 5.264H42.9811ZM58.5038 16.154C57.0665 16.154 55.7465 15.8167 54.5438 15.142C53.3411 14.4673 52.3878 13.536 51.6838 12.348C50.9798 11.1453 50.6278 9.78867 50.6278 8.278C50.6278 6.782 50.9798 5.44 51.6838 4.252C52.3878 3.04933 53.3411 2.11067 54.5438 1.436C55.7465 0.761333 57.0665 0.424 58.5038 0.424C59.9558 0.424 61.2758 0.761333 62.4638 1.436C63.6665 2.11067 64.6125 3.04933 65.3018 4.252C66.0058 5.44 66.3578 6.782 66.3578 8.278C66.3578 9.78867 66.0058 11.1453 65.3018 12.348C64.6125 13.536 63.6665 14.4673 62.4638 15.142C61.2611 15.8167 59.9411 16.154 58.5038 16.154ZM58.5038 13.404C59.4278 13.404 60.2418 13.1987 60.9458 12.788C61.6498 12.3627 62.1998 11.7613 62.5958 10.984C62.9918 10.2067 63.1898 9.30467 63.1898 8.278C63.1898 7.25133 62.9918 6.35667 62.5958 5.594C62.1998 4.81667 61.6498 4.22267 60.9458 3.812C60.2418 3.40133 59.4278 3.196 58.5038 3.196C57.5798 3.196 56.7585 3.40133 56.0398 3.812C55.3358 4.22267 54.7858 4.81667 54.3898 5.594C53.9938 6.35667 53.7958 7.25133 53.7958 8.278C53.7958 9.30467 53.9938 10.2067 54.3898 10.984C54.7858 11.7613 55.3358 12.3627 56.0398 12.788C56.7585 13.1987 57.5798 13.404 58.5038 13.404Z" fill="white"/>
</svg>
